<?xml version="1.0" encoding="iso-8859-1"?>
<!-- Generator: Adobe Illustrator 19.0.0, SVG Export Plug-In . SVG Version: 6.00 Build 0)  -->
<svg version="1.1" id="Capa_1" xmlns="http://www.w3.org/2000/svg" xmlns:xlink="http://www.w3.org/1999/xlink" x="0px" y="0px"
	 viewBox="0 0 512 512" style="enable-background:new 0 0 512 512;" xml:space="preserve">
<path style="fill:#E89606;" d="M380.133,54.857c0-30.539,24.955-55.25,55.585-54.852c30.146,0.391,54.129,25.521,54.129,55.67
	v29.572c0,3.414-2.767,6.181-6.181,6.181H380.133V54.857z"/>
<path style="fill:#E08506;" d="M445.748,1.088c-3.247-0.657-6.596-1.038-10.03-1.083c-30.63-0.398-55.585,24.313-55.585,54.852
	v36.571h21.634V54.857C401.767,28.285,420.663,6.135,445.748,1.088z"/>
<path style="fill:#FFB408;" d="M124.132,512h201.144c30.297,0,54.857-24.561,54.857-54.857l-0.001-22.86
	c-7.575,0-13.715-6.141-13.715-13.715s6.141-13.715,13.715-13.715l0.002-351.996C380.134,24.561,404.694,0,434.991,0h-256
	c-30.297,0-54.857,24.561-54.857,54.857l-0.003,31.999c7.575,0,13.715,6.141,13.715,13.715s-6.141,13.715-13.715,13.715L124.132,512
	z"/>
<path style="fill:#E89606;" d="M414.386,0c-30.297,0-54.857,24.561-54.857,54.857l-0.002,351.996
	c-7.575,0-13.715,6.141-13.715,13.715c0,7.575,6.141,13.715,13.715,13.715l0.001,22.86c0,30.297-24.561,54.857-54.857,54.857h20.604
	c30.297,0,54.857-24.561,54.857-54.857l-0.001-22.86c-7.575,0-13.715-6.141-13.715-13.715c0-7.575,6.141-13.715,13.715-13.715
	l0.002-351.996C380.133,24.561,404.693,0,434.99,0H414.386z"/>
<path style="fill:#FFCA2E;" d="M69.285,512c-30.297,0-54.857-24.561-54.857-54.857v-30.39c0-3.414,2.767-6.181,6.181-6.181h243.628
	c3.414,0,6.181,2.767,6.181,6.181v30.39c0,30.297,24.561,54.857,54.856,54.857H69.285z"/>
<g>
	<path style="fill:#585D60;" d="M306.99,80.869H197.277c-4.267,0-7.726-3.459-7.726-7.726c0-4.267,3.459-7.726,7.726-7.726H306.99
		c4.267,0,7.726,3.459,7.726,7.726C314.716,77.41,311.257,80.869,306.99,80.869z"/>
	<path style="fill:#585D60;" d="M343.561,154.011H160.705c-4.267,0-7.726-3.459-7.726-7.726c0-4.267,3.459-7.726,7.726-7.726
		h182.856c4.267,0,7.726,3.459,7.726,7.726C351.288,150.552,347.828,154.011,343.561,154.011z"/>
	<path style="fill:#585D60;" d="M343.561,190.585H160.705c-4.267,0-7.726-3.459-7.726-7.726c0-4.267,3.459-7.726,7.726-7.726
		h182.856c4.267,0,7.726,3.459,7.726,7.726C351.288,187.125,347.828,190.585,343.561,190.585z"/>
	<path style="fill:#585D60;" d="M343.561,227.157H160.705c-4.267,0-7.726-3.459-7.726-7.726c0-4.267,3.459-7.726,7.726-7.726
		h182.856c4.267,0,7.726,3.459,7.726,7.726C351.288,223.698,347.828,227.157,343.561,227.157z"/>
	<path style="fill:#585D60;" d="M343.561,263.73H160.705c-4.267,0-7.726-3.459-7.726-7.726c0-4.267,3.459-7.726,7.726-7.726h182.856
		c4.267,0,7.726,3.459,7.726,7.726C351.288,260.271,347.828,263.73,343.561,263.73z"/>
	<path style="fill:#585D60;" d="M215.56,336.867h-54.855c-4.267,0-7.726-3.459-7.726-7.726c0-4.267,3.459-7.726,7.726-7.726h54.855
		c4.267,0,7.726,3.459,7.726,7.726S219.827,336.867,215.56,336.867z"/>
</g>
<polygon style="fill:#E2F1F6;" points="321.755,350.947 360.545,363.877 489.844,234.578 489.846,182.858 489.845,182.857 
	438.125,182.859 308.826,312.158 321.757,350.949 "/>
<g>
	<path style="fill:#9DADAD;" d="M392.872,313.421c-0.81,0-1.634-0.129-2.445-0.399l-19.396-6.464
		c-4.049-1.35-6.236-5.725-4.887-9.773c1.35-4.048,5.724-6.237,9.773-4.887l19.396,6.464c4.049,1.35,6.236,5.725,4.887,9.773
		C399.121,311.373,396.107,313.421,392.872,313.421z"/>
	<path style="fill:#9DADAD;" d="M347.614,332.817c-3.236,0-6.25-2.047-7.329-5.285l-6.464-19.396
		c-1.35-4.049,0.839-8.424,4.887-9.773c4.047-1.352,8.424,0.839,9.773,4.887l6.464,19.396c1.35,4.049-0.839,8.424-4.887,9.773
		C349.248,332.69,348.424,332.817,347.614,332.817z"/>
	<path style="fill:#9DADAD;" d="M438.127,226.852h-43.994l-15.453,15.453h51.72l-0.001,51.718l15.453-15.453l0.001-43.992
		c0-2.049-0.814-4.014-2.263-5.463C442.141,227.666,440.176,226.852,438.127,226.852z"/>
</g>
<path style="fill:#344040;" d="M282.965,397.463c-1.977,0-3.955-0.754-5.463-2.263c-3.017-3.017-3.017-7.91,0-10.927
	l206.881-206.881c3.017-3.017,7.91-3.017,10.926,0c3.017,3.017,3.017,7.91,0,10.926L288.428,395.199
	C286.919,396.709,284.942,397.463,282.965,397.463z"/>
<g>
</g>
<g>
</g>
<g>
</g>
<g>
</g>
<g>
</g>
<g>
</g>
<g>
</g>
<g>
</g>
<g>
</g>
<g>
</g>
<g>
</g>
<g>
</g>
<g>
</g>
<g>
</g>
<g>
</g>
</svg>
